<svg xmlns="http://www.w3.org/2000/svg" viewBox="0 0 541.7 180"><path d="M90,0V38a52,52,0,0,1,0,104v38A90,90,0,0,0,90,0Z" fill="#2fa63f"/><path d="M38,90A52.1,52.1,0,0,1,90,38V0a90,90,0,0,0,0,180V142A52.1,52.1,0,0,1,38,90Z" fill="#39b54a"/><rect x="229" width="19" height="180" fill="#7fb338"/><rect x="210" width="19" height="180" fill="#8dc63f"/><path d="M280.4,85.7c0-15.2,11.5-24.8,25.6-24.8,10,0,16.3,5,19.9,10.7l-8.5,4.6A13.6,13.6,0,0,0,306,69.9c-8.7,0-15,6.7-15,15.8s6.3,15.8,15,15.8a16.2,16.2,0,0,0,10.2-3.7V92H303.6V83.1h22.9v18.4a26.7,26.7,0,0,1-20.5,9.1C292,110.6,280.4,100.8,280.4,85.7Z" fill="#000"/><path d="M365.3,109.6l-9.4-17.1h-7.5v17.1H338.2v-48h22.5c10,0,16.1,6.6,16.1,15.5s-5.3,13-10.5,14.3l10.8,18.3Zm1-32.5c0-4-3.1-6.5-7.2-6.5H348.4v13h10.7C363.2,83.6,366.3,81.1,366.3,77.1Z" fill="#000"/><path d="M385.8,85.7c0-14.5,10.6-24.8,25.1-24.8S436,71.2,436,85.7s-10.6,24.8-25.1,24.8S385.8,100.1,385.8,85.7Zm39.7,0c0-9-5.8-15.8-14.6-15.8s-14.5,6.8-14.5,15.8,5.7,15.8,14.5,15.8S425.5,94.6,425.5,85.7Z" fill="#000"/><path d="M446.8,90.5V61.6h10.4V90.1c0,6.7,3.9,11.3,11.3,11.3s11.2-4.6,11.2-11.3V61.6h10.4V90.4c0,12-7.1,20.1-21.7,20.1S446.8,102.3,446.8,90.5Z" fill="#000"/><path d="M503.1,109.6v-48h22.5c10.4,0,16.1,7.1,16.1,15.5S536,92.6,525.6,92.6H513.4v17.1Zm28.2-32.5c0-4-3-6.5-7.1-6.5H513.4v13h10.9C528.3,83.6,531.3,81.1,531.3,77.1Z" fill="#000"/></svg>
